# Blender v2.77 (sub 0) OBJ File: 'untitled.blend'
# www.blender.org
mtllib Rock 1.mtl
o Icosphere
v 0.177967 0.528013 0.447576
v -0.423193 0.530976 0.251191
v 0.519287 0.545598 0.038252
v 0.178019 0.585039 -0.394730
v -0.423762 0.574405 -0.237019
v 0.468022 0.483745 -0.266319
v 0.572400 0.494467 0.437201
v -0.121447 0.422544 -0.343770
v 0.808207 0.000143 0.262898
v 0.341707 -0.298537 -0.171932
v 0.501054 0.005672 0.674961
v -0.133401 -0.217377 -0.270047
v 0.336155 -0.296012 0.272892
v -0.476143 -0.090087 0.532494
v 0.078913 -0.068696 0.694874
v 0.145541 -0.189793 -0.373981
v 0.561551 -0.110921 -0.157311
v -0.591895 0.456214 0.065566
v -0.808605 0.000434 0.261965
v -0.190476 0.472286 0.449570
v -0.444009 -0.290661 0.058366
v -0.609500 -0.105631 -0.195653
v -0.137166 -0.294899 0.442946
v -0.511402 0.263000 -0.209827
v 0.193051 0.263945 -0.454241
v 0.643170 0.282456 0.130783
v 0.012811 0.669764 0.031030
v -0.642903 0.385369 0.449297
v 0.266826 0.440389 0.844316
v -0.203374 -0.037481 -0.511028
v -0.634134 -0.186026 0.052225
v -0.206946 -0.210757 0.651292
v 0.476171 -0.145897 0.369065
v 0.006573 -0.360034 0.061551
vt 0.4510 0.3757
vt 0.3857 0.3654
vt 0.3955 0.3036
vt 0.3067 0.5153
vt 0.3070 0.5976
vt 0.2234 0.6396
vt 0.1982 0.7023
vt 0.1393 0.7368
vt 0.2388 0.3546
vt 0.3172 0.4109
vt 0.1393 0.4651
vt 0.4086 0.3954
vt 0.3623 0.3977
vt 0.3523 0.4466
vt 0.4377 0.4959
vt 0.3038 0.5151
vt 0.3415 0.5734
vt 0.4316 0.5286
vt 0.3495 0.6092
vt 0.3226 0.3630
vt 0.3695 0.6465
vt 0.3890 0.6163
vt 0.4387 0.6400
vt 0.3942 0.7093
vt 0.5141 0.3168
vt 0.5141 0.4053
vt 0.5175 0.6205
vt 0.4946 0.7058
vt 0.3866 0.2587
vt 0.4408 0.2201
vt 0.3391 0.6789
vt 0.3107 0.6724
vt 0.3059 0.6405
vt 0.3002 0.6996
vt 0.3321 0.3249
vt 0.3259 0.2948
vt 0.2260 0.7272
vt 0.2909 0.7880
vt 0.3170 0.2120
vt 0.3616 0.3425
vt 0.3586 0.7429
vt 0.4084 0.7880
vn 0.6750 0.4978 -0.5445
vn 0.9522 0.2824 -0.1165
vn 0.7475 -0.4606 -0.4786
vn -0.2666 0.7485 0.6071
vn -0.5997 0.5022 0.6230
vn -0.5084 -0.4361 0.7425
vn -0.2233 -0.5434 0.8092
vn 0.0246 -0.5480 0.8361
vn 0.1126 0.4899 0.8645
vn 0.6272 0.7694 -0.1205
vn 0.7244 0.6192 0.3031
vn -0.0213 0.9613 0.2746
vn -0.0336 0.9994 -0.0052
vn -0.2904 0.9351 0.2029
vn -0.7526 0.6398 -0.1557
vn 0.5742 -0.4125 0.7072
vn -0.7169 0.2126 -0.6639
vn -0.4560 0.6885 -0.5639
vn -0.2527 0.5066 -0.8243
vn -0.2497 -0.2569 -0.9336
vn 0.2497 0.0620 -0.9663
vn 0.0635 0.7212 -0.6898
vn 0.4486 -0.8820 -0.1445
vn 0.1983 -0.6213 -0.7580
vn -0.7039 -0.3972 -0.5888
vn -0.6334 -0.7723 -0.0485
vn -0.9548 -0.2360 0.1805
vn -0.2810 -0.9577 -0.0615
vn 0.4553 -0.8314 0.3184
vn 0.3388 -0.9126 0.2287
vn -0.0493 -0.9748 0.2176
vn -0.0119 -0.9996 -0.0266
vn 0.9740 -0.1861 0.1288
vn -0.1821 -0.8836 -0.4313
usemtl Material.001
s 1
f 6/1/1 26/2/2 17/3/3
f 20/4/4 28/5/5 14/6/6
f 32/7/7 15/8/8 14/6/6
f 15/9/8 29/10/9 14/11/6
f 26/2/2 3/12/10 7/13/11
f 1/14/12 27/15/13 20/16/4
f 1/14/12 29/10/9 7/13/11
f 2/17/14 28/5/5 20/4/4
f 2/17/14 27/18/13 18/19/15
f 26/2/2 7/13/11 11/20/16
f 3/12/10 26/2/2 6/1/1
f 24/21/17 5/22/18 8/23/19
f 3/12/10 27/15/13 7/13/11
f 24/21/17 8/23/19 30/24/20
f 25/25/21 4/26/22 6/1/1
f 4/26/22 27/15/13 6/1/1
f 4/27/22 25/28/21 8/23/19
f 17/3/3 10/29/23 16/30/24
f 27/15/13 1/14/12 7/13/11
f 5/22/18 24/21/17 18/19/15
f 29/10/9 1/14/12 20/16/4
f 5/22/18 27/18/13 8/23/19
f 27/15/13 3/12/10 6/1/1
f 28/5/5 2/17/14 18/19/15
f 7/13/11 29/10/9 11/20/16
f 8/23/19 25/28/21 30/24/20
f 27/18/13 5/22/18 18/19/15
f 29/10/9 20/16/4 14/11/6
f 27/18/13 2/17/14 20/4/4
f 22/31/25 31/32/26 19/33/27
f 27/18/13 4/27/22 8/23/19
f 17/3/3 16/30/24 25/25/21
f 25/25/21 6/1/1 17/3/3
f 31/32/26 21/34/28 14/6/6
f 33/35/29 13/36/30 17/3/3
f 24/21/17 22/31/25 19/33/27
f 28/5/5 19/33/27 14/6/6
f 28/5/5 18/19/15 19/33/27
f 23/37/31 34/38/32 15/8/8
f 23/37/31 32/7/7 14/6/6
f 13/36/30 34/39/32 17/3/3
f 13/36/30 33/35/29 15/9/8
f 21/34/28 34/38/32 14/6/6
f 21/34/28 31/32/26 22/31/25
f 19/33/27 31/32/26 14/6/6
f 32/7/7 23/37/31 15/8/8
f 18/19/15 24/21/17 19/33/27
f 9/40/33 33/35/29 17/3/3
f 9/40/33 26/2/2 11/20/16
f 33/35/29 9/40/33 11/20/16
f 10/29/23 34/39/32 16/30/24
f 34/39/32 10/29/23 17/3/3
f 26/2/2 9/40/33 17/3/3
f 11/20/16 29/10/9 15/9/8
f 33/35/29 11/20/16 15/9/8
f 12/41/34 30/24/20 16/42/24
f 34/38/32 12/41/34 16/42/24
f 34/39/32 13/36/30 15/9/8
f 12/41/34 34/38/32 22/31/25
f 30/24/20 12/41/34 22/31/25
f 16/42/24 30/24/20 25/28/21
f 34/38/32 23/37/31 14/6/6
f 34/38/32 21/34/28 22/31/25
f 30/24/20 22/31/25 24/21/17
