<?xml version="1.0" standalone="no"?>
<!DOCTYPE svg PUBLIC "-//W3C//DTD SVG 20010904//EN"
 "http://www.w3.org/TR/2001/REC-SVG-20010904/DTD/svg10.dtd">
<svg version="1.0" xmlns="http://www.w3.org/2000/svg"
 width="192.000000pt" height="192.000000pt" viewBox="0 0 192.000000 192.000000"
 preserveAspectRatio="xMidYMid meet">
<metadata>
Created by potrace 1.14, written by Peter Selinger 2001-2017
</metadata>
<g transform="translate(0.000000,192.000000) scale(0.100000,-0.100000)"
fill="#000000" stroke="none">
<path d="M892 1742 c-2 -7 -11 -11 -18 -8 -8 3 -14 2 -14 -2 0 -4 -12 -8 -27
-9 -51 -5 -78 -9 -93 -16 -8 -4 -26 -9 -40 -11 -14 -3 -27 -5 -30 -6 -3 -2 -9
-2 -13 -1 -15 3 -141 -98 -182 -145 -22 -26 -57 -64 -77 -85 -21 -21 -38 -41
-38 -44 0 -4 -11 -21 -25 -39 -14 -18 -25 -38 -25 -44 0 -7 -4 -12 -10 -12 -5
0 -14 -19 -20 -42 -6 -24 -16 -56 -23 -73 -6 -16 -12 -32 -13 -35 0 -5 -17
-66 -39 -145 -16 -55 -18 -162 -4 -171 5 -3 7 -9 4 -14 -3 -5 -1 -11 5 -15 5
-3 10 -17 10 -31 0 -14 7 -38 15 -54 9 -17 13 -30 9 -30 -4 0 -1 -6 5 -14 6
-8 11 -18 10 -22 -2 -14 13 -54 20 -54 3 0 7 -12 8 -26 0 -15 5 -29 10 -33 4
-3 29 -37 55 -76 61 -90 148 -166 238 -206 14 -6 33 -15 43 -20 10 -6 22 -7
27 -4 6 4 10 1 10 -5 0 -7 6 -10 13 -7 6 2 22 0 34 -4 12 -4 43 -11 69 -14 26
-3 53 -10 59 -15 7 -5 15 -7 18 -3 4 3 7 2 7 -4 0 -15 46 -18 135 -8 28 3 64
7 80 8 17 1 36 6 43 10 6 5 17 5 22 2 6 -3 10 -2 10 2 0 5 8 9 18 10 76 4 250
112 309 191 35 47 42 53 76 75 15 10 32 29 37 42 5 12 13 26 19 29 5 3 12 21
16 39 4 17 13 42 21 55 8 12 12 27 9 32 -3 5 -1 11 4 15 5 3 10 13 10 23 -1
36 13 117 21 122 4 3 7 62 7 133 0 96 -3 127 -13 127 -8 0 -11 10 -7 31 2 16
0 36 -4 42 -5 7 -9 19 -8 27 1 15 -32 82 -64 130 -9 14 -26 42 -36 63 -11 20
-23 37 -27 37 -5 0 -8 7 -8 15 0 32 -144 155 -217 186 -18 8 -33 17 -33 21 0
4 -25 15 -55 23 -30 9 -57 21 -61 26 -3 5 -9 7 -14 4 -5 -3 -11 -1 -15 5 -3 5
-17 10 -30 10 -13 0 -30 6 -37 13 -18 17 -179 17 -186 -1z"/>
</g>
</svg>
