<?xml version="1.0" encoding="UTF-8"?>
<svg width="360px" height="640px" viewBox="0 0 360 640" version="1.1" xmlns="http://www.w3.org/2000/svg" xmlns:xlink="http://www.w3.org/1999/xlink">
    <!-- Generator: Sketch 50 (54983) - http://www.bohemiancoding.com/sketch -->
    <title>iPhone 6S Intro Copy 2</title>
    <desc>Created with Sketch.</desc>
    <defs>
        <linearGradient x1="0.499999523%" y1="101.499999%" x2="101.499999%" y2="-0.499999523%" id="linearGradient-1">
            <stop stop-color="#3023AE" offset="0%"></stop>
            <stop stop-color="#C86DD7" offset="100%"></stop>
        </linearGradient>
        <path d="M148.405388,112.467132 L134.062537,125.122216 C133.514442,125.605814 132.808646,125.872673 132.077705,125.872673 C130.420851,125.872673 129.077705,124.529527 129.077705,122.872673 L129.077705,112.467132 L115.766392,112.467132 L115.766392,102.817443 C115.766392,101.712874 114.870961,100.817443 113.766392,100.817443 C113.143675,100.817443 112.55649,101.107498 112.178063,101.602037 L103.863975,112.467132 L103.678871,112.467132 C92.6331758,112.467132 83.6788708,103.512827 83.6788708,92.4671324 L83.6788708,28.1273268 C83.6788708,17.0816318 92.6331758,8.12732682 103.678871,8.12732682 L197.678871,8.12732682 C208.724566,8.12732682 217.678871,17.0816318 217.678871,28.1273268 L217.678871,92.4671324 C217.678871,103.512827 208.724566,112.467132 197.678871,112.467132 L148.405388,112.467132 Z" id="path-2"></path>
        <filter x="-2.2%" y="-2.5%" width="104.5%" height="105.1%" filterUnits="objectBoundingBox" id="filter-3">
            <feOffset dx="0" dy="0" in="SourceAlpha" result="shadowOffsetOuter1"></feOffset>
            <feMorphology radius="3" operator="erode" in="SourceAlpha" result="shadowInner"></feMorphology>
            <feOffset dx="0" dy="0" in="shadowInner" result="shadowInner"></feOffset>
            <feComposite in="shadowOffsetOuter1" in2="shadowInner" operator="out" result="shadowOffsetOuter1"></feComposite>
            <feGaussianBlur stdDeviation="1" in="shadowOffsetOuter1" result="shadowBlurOuter1"></feGaussianBlur>
            <feColorMatrix values="0 0 0 0 0   0 0 0 0 0   0 0 0 0 0  0 0 0 0.3 0" type="matrix" in="shadowBlurOuter1"></feColorMatrix>
        </filter>
        <path d="M108.306608,99.5089724 L122.439614,99.5089724 C123.03804,99.5089724 123.605023,99.7769402 123.98492,100.239316 C124.686132,101.092765 124.562719,102.353067 123.70927,103.054279 L108.177888,115.81519 C107.045517,125.786464 98.5807786,133.533567 88.3066078,133.533567 L20.6251778,133.533567 C9.57948285,133.533567 0.625177846,124.579262 0.625177846,113.533567 L0.625177846,20.466433 C0.625177846,9.42073797 9.57948285,0.466432965 20.6251778,0.466432965 L88.3066078,0.466432965 C99.3523028,0.466432965 108.306608,9.42073797 108.306608,20.466433 L108.306608,69.3226583 L97.1241861,81.4713742 C96.0020977,82.6904245 96.0807007,84.5882924 97.299751,85.7103808 C97.8535632,86.2201435 98.5787661,86.5030951 99.3314718,86.5030951 L108.306608,86.5030951 L108.306608,99.5089724 Z" id="path-4"></path>
        <filter x="-2.4%" y="-2.3%" width="104.8%" height="104.5%" filterUnits="objectBoundingBox" id="filter-5">
            <feOffset dx="0" dy="0" in="SourceAlpha" result="shadowOffsetOuter1"></feOffset>
            <feGaussianBlur stdDeviation="1" in="shadowOffsetOuter1" result="shadowBlurOuter1"></feGaussianBlur>
            <feColorMatrix values="0 0 0 0 0   0 0 0 0 0   0 0 0 0 0  0 0 0 0.3 0" type="matrix" in="shadowBlurOuter1"></feColorMatrix>
        </filter>
    </defs>
    <g id="iPhone-6S-Intro-Copy-2" stroke="none" stroke-width="1" fill="none" fill-rule="evenodd">
        <rect id="Rectangle-9" stroke="#979797" fill="url(#linearGradient-1)" x="0.5" y="0.5" width="374" height="666"></rect>
        <g id="texpeech/logo/large" transform="translate(75.000000, 190.000000)">
            <g id="Group-Copy">
                <g id="Combined-Shape-Copy" transform="translate(150.678871, 67.000000) scale(-1, 1) rotate(-90.000000) translate(-150.678871, -67.000000) ">
                    <use fill="black" fill-opacity="1" filter="url(#filter-3)" xlink:href="#path-2"></use>
                    <path stroke="#FFFFFF" stroke-width="3" d="M103.129143,110.959121 L110.986817,100.690483 C111.649064,99.8250387 112.676638,99.3174435 113.766392,99.3174435 C115.699388,99.3174435 117.266392,100.884447 117.266392,102.817443 L117.266392,110.967132 L129.077705,110.967132 L130.577705,110.967132 L130.577705,122.872673 C130.577705,123.7011 131.249278,124.372673 132.077705,124.372673 C132.443176,124.372673 132.796073,124.239244 133.070121,123.997444 L147.838244,110.967132 L197.678871,110.967132 C207.896139,110.967132 216.178871,102.6844 216.178871,92.4671324 L216.178871,28.1273268 C216.178871,17.9100589 207.896139,9.62732682 197.678871,9.62732682 L103.678871,9.62732682 C93.4616029,9.62732682 85.1788708,17.9100589 85.1788708,28.1273268 L85.1788708,92.4671324 C85.1788708,102.500519 93.166155,110.668375 103.129143,110.959121 Z" stroke-linejoin="square"></path>
                </g>
                <g id="Combined-Shape">
                    <use fill="black" fill-opacity="1" filter="url(#filter-5)" xlink:href="#path-4"></use>
                    <use fill="#FFFFFF" fill-rule="evenodd" xlink:href="#path-4"></use>
                </g>
                <path d="M171.465275,100 L145.533654,100 C145.522454,99.9999259 145.511235,100 145.5,100 C144.119288,100 143,98.8807119 143,97.5 C143,96.1192881 144.119288,95 145.5,95 C145.511235,95 145.522454,95.0000741 145.533654,95.0002219 L145.533654,94.9093976 L155.814818,94.9093976 L155.814818,87.2178313 C143.368292,85.8736994 133.984866,76.0702298 134.000018,64.426506 C134.000018,64.3151807 134.018533,64.2139759 134.020711,64.1127711 L134.020711,58.8232918 C134.007047,58.7174594 134,58.6095526 134,58.5 C134,58.3904474 134.007047,58.2825406 134.020711,58.1767082 L134.020711,58 L134.050009,58 C134.281644,56.8588798 135.290521,56 136.5,56 C137.719122,56 138.73443,56.8726296 138.955383,58.0273469 L139.432481,58.0303614 L139.432481,65.2159036 L139.418322,65.2159036 L139.418322,65.2361446 C139.418322,65.3272289 139.431391,65.4183133 139.432481,65.5093976 L139.432481,66.4607229 L139.483669,66.4607229 C140.292979,75.4589496 148.217483,82.4723161 157.928773,82.7850602 L159.02877,82.7850602 C168.743168,82.4774711 176.672025,75.4619095 177.478231,66.4607229 L177.543577,66.4607229 L177.543577,58.0303614 L178.044648,58.0271868 C178.265664,56.8725489 179.280935,56 180.5,56 C181.709479,56 182.718356,56.8588798 182.949991,58 L183,58 L183,64.426506 L182.967327,64.426506 L182.966238,64.426506 C182.974785,76.0495888 173.62595,85.841362 161.205894,87.2178313 L161.205894,94.9093976 L171.465275,94.9093976 L171.465275,95.0002362 C171.476831,95.0000789 171.488406,95 171.5,95 C172.880712,95 174,96.1192881 174,97.5 C174,98.8807119 172.880712,100 171.5,100 C171.488406,100 171.476831,99.9999211 171.465275,99.9997638 Z M172.954926,60.6440321 C172.954926,62.1545341 172.954926,63.7450627 172.869071,65.2555647 C172.803165,66.6177113 172.580086,67.9692825 172.203692,69.2869045 C171.363802,72.0525123 169.57284,74.4845256 167.10603,76.209205 C162.046345,79.930265 154.908789,79.930265 149.849103,76.209205 C147.375876,74.4898661 145.582698,72.055869 144.749295,69.2869045 C144.371172,67.969654 144.148417,66.6178702 144.084989,65.2555647 C143.991622,63.7450627 144.000207,62.1545341 144.000207,60.6440321 L144.000207,47.99983 C144.000207,46.4993313 144.008793,39.8671272 144.000207,38.7467548 C144.042623,37.3764144 144.295608,36.0188213 144.751442,34.7154151 C146.469535,28.9724285 152.082297,25 158.47864,25 C164.874982,25 170.487745,28.9724285 172.205838,34.7154151 C172.609306,36.0304772 172.861142,37.381901 172.957072,38.7467548 C173.05366,40.2572568 172.957072,46.4993313 172.957072,47.99983 L172.957072,60.6440321 L172.954926,60.6440321 Z M167.956782,62.9899898 C167.956782,63.9499889 167.934456,64.2699886 167.867477,65.2299877 C167.828955,66.1017328 167.682947,66.9669894 167.432115,67.8099853 C166.897485,69.579945 165.733584,71.1456436 164.116665,72.2699812 C160.803638,74.5766729 156.166094,74.5766729 152.853066,72.2699812 C151.229878,71.1489451 150.061408,69.5823758 149.526453,67.8099853 C149.28103,66.965988 149.135111,66.1012576 149.091091,65.2299877 C149.035275,64.2699886 149.024112,63.9499889 149.024112,62.9899898 C149.024112,49.6900021 148.957134,39.8300113 149.046439,38.7700123 C149.111013,37.8979307 149.271802,37.0337175 149.526453,36.1900147 C150.061408,34.4176242 151.229878,32.8510549 152.853066,31.7300188 C156.166094,29.4233271 160.803638,29.4233271 164.116665,31.7300188 C165.733584,32.8543564 166.897485,34.420055 167.432115,36.1900147 C167.715697,37.0298323 167.895386,37.8950254 167.967946,38.7700123 C168.046087,39.9100112 167.956782,49.6500022 167.956782,62.9899898 Z" id="Dictation-Copy-2" fill="#FFFFFF"></path>
                <rect id="Rectangle-4" fill="#D8D8D8" x="19" y="25" width="69" height="9" rx="4"></rect>
                <rect id="Rectangle-4-Copy" fill="#D8D8D8" x="19" y="45" width="69" height="9" rx="4"></rect>
                <rect id="Rectangle-4-Copy-2" fill="#D8D8D8" x="19" y="64" width="69" height="9" rx="4"></rect>
            </g>
        </g>
        <text id="Texpeech" font-family="HelveticaNeue-Bold, Helvetica Neue" font-size="45" font-weight="bold" letter-spacing="-0.5" fill="#FFFFFF">
            <tspan x="80.4175" y="383">Texpeech</tspan>
        </text>
        <text id="텍스트-음성-변환-메신저" font-family="AppleSDGothicNeo-Light, Apple SD Gothic Neo" font-size="20" font-weight="300" letter-spacing="-0.5" fill="#FFFFFF">
            <tspan x="87.16" y="420">텍스트-음성 변환 메신저</tspan>
        </text>
    </g>
</svg>