<?xml version="1.0" standalone="no"?>
<!DOCTYPE svg PUBLIC "-//W3C//DTD SVG 20010904//EN"
 "http://www.w3.org/TR/2001/REC-SVG-20010904/DTD/svg10.dtd">
<svg version="1.0" xmlns="http://www.w3.org/2000/svg"
 width="401.000000pt" height="401.000000pt" viewBox="0 0 401.000000 401.000000"
 preserveAspectRatio="xMidYMid meet">
<metadata>
Created by potrace 1.11, written by Peter Selinger 2001-2013
</metadata>
<g transform="translate(0.000000,401.000000) scale(0.100000,-0.100000)"
fill="#000000" stroke="none">
<path d="M2195 3335 c-238 -34 -1379 -193 -1588 -222 -147 -20 -205 -50 -253
-131 -82 -136 -67 -407 30 -551 l34 -50 -71 -23 c-87 -26 -102 -38 -93 -71 4
-18 24 -33 70 -56 54 -27 68 -40 92 -84 27 -49 28 -59 29 -172 l0 -120 -93
-32 c-164 -56 -194 -86 -110 -113 l46 -15 -24 -30 c-60 -74 -84 -210 -65 -357
14 -105 32 -158 73 -219 55 -81 -21 -52 973 -374 198 -64 380 -124 405 -132
44 -15 49 -15 255 36 231 56 689 167 830 201 50 12 191 46 315 76 124 30 311
75 415 101 105 25 196 50 203 56 27 21 -35 58 -179 106 l-66 22 -7 62 c-7 69
7 175 30 223 20 43 50 69 115 101 47 24 54 32 54 57 0 26 -5 31 -43 44 l-43
14 35 38 c45 50 71 101 89 176 38 148 29 297 -22 396 l-29 58 36 9 c20 6 60
15 87 22 49 12 68 25 59 41 -9 15 -87 50 -169 78 l-80 27 -8 54 c-10 67 6 186
32 237 24 46 46 67 96 88 69 28 94 66 62 93 -8 6 -132 46 -278 90 -145 44
-414 125 -598 180 -214 65 -349 101 -375 100 -23 -1 -144 -16 -271 -34z
m-1401 -464 c133 -44 417 -137 631 -207 215 -70 392 -128 394 -130 2 -2 0 -98
-4 -214 -5 -145 -11 -210 -19 -210 -6 0 -297 79 -646 177 -584 163 -638 180
-667 208 -44 44 -66 126 -67 250 0 84 3 107 22 142 25 48 45 62 86 63 16 0
137 -36 270 -79z m2683 -68 c-15 -46 -19 -85 -19 -183 l1 -126 -442 -109
c-243 -60 -599 -148 -791 -196 l-349 -87 8 211 c4 117 8 214 10 216 4 3 358
77 835 175 439 89 715 146 725 150 6 3 17 5 26 5 14 1 14 -5 -4 -56z m31 -548
c43 -36 56 -94 50 -222 -6 -117 -26 -180 -69 -219 -16 -15 -94 -41 -229 -79
-113 -31 -308 -86 -435 -121 -126 -36 -295 -83 -375 -106 -80 -22 -174 -49
-209 -59 -35 -11 -66 -17 -69 -14 -2 2 -5 100 -6 217 l-1 212 410 134 c226 73
509 167 630 207 121 40 232 74 247 74 15 1 40 -10 56 -24z m-2578 -160 c91
-19 385 -79 655 -135 269 -55 492 -103 496 -108 7 -7 20 -422 14 -422 -2 0
-294 72 -647 160 -354 88 -708 177 -788 197 l-145 36 3 116 c3 107 -6 172 -32
233 -8 17 -30 21 444 -77z m-223 -579 c159 -52 450 -147 647 -211 l359 -117
-7 -211 c-3 -116 -8 -213 -11 -215 -2 -3 -80 17 -172 43 -92 26 -213 60 -268
75 -55 16 -262 73 -459 129 -198 56 -365 101 -371 101 -23 0 -63 40 -83 84
-12 24 -26 83 -32 130 -22 160 21 278 102 285 5 1 137 -41 295 -93z m2661 -63
c-15 -43 -20 -89 -21 -182 l-2 -124 -783 -195 c-431 -107 -785 -192 -788 -189
-3 3 -2 99 3 213 l8 209 155 32 c85 18 173 32 195 30 25 -2 74 8 130 26 49 16
209 53 355 83 495 102 615 127 670 139 30 7 64 13 76 14 l21 1 -19 -57z"/>
</g>
</svg>
